<svg height="512" viewBox="0 0 58 58" width="512" xmlns="http://www.w3.org/2000/svg"><g id="Page-1" fill="none" fill-rule="evenodd"><g id="018---Chat-Notification" fill-rule="nonzero"><path id="Shape" d="m52.75 18.8c3.441131 4.3842445 5.2921134 9.8067416 5.25 15.38 0 16.37-12.98 21.82-29 21.82-4.2052726.0529205-8.4008036-.4173552-12.49-1.4-.6167463-.1666022-1.2759857-.0250706-1.77.38-2.1826261 1.8221049-4.90010688 2.8824139-7.74 3.02-2.47004705-.0297432-4.88707686-.7203231-7-2 2.52583887-.9834979 4.50725681-3.0049813 5.44-5.55.26663433-.7087003.11624609-1.5069148-.39-2.07-3.18-3.36-5.05-8-5.05-14.2 0-15.27 12.98-26.18 29-26.18 3.0524555-.01043914 6.0915431.40352296 9.03 1.23" fill="#3b97d3"/><rect id="Rectangle-path" fill="#547580" height="22" rx="11" width="48" x="5" y="23"/><circle id="Oval" cx="16" cy="32" fill="#81ccb8" r="4"/><circle id="Oval" cx="42" cy="32" fill="#81ccb8" r="4"/><path id="Shape" d="m26 35h6c.5522847 0 1 .4477153 1 1v1c0 2.209139-1.790861 4-4 4s-4-1.790861-4-4v-1c0-.5522847.4477153-1 1-1z" fill="#35495e"/><path id="Shape" d="m33 20h-8c-.5522847 0-1-.4477153-1-1s.4477153-1 1-1h8c.5522847 0 1 .4477153 1 1s-.4477153 1-1 1z" fill="#9fc9d3"/><path id="Shape" d="m30 16h-2c-.5522847 0-1-.4477153-1-1s.4477153-1 1-1h2c.5522847 0 1 .4477153 1 1s-.4477153 1-1 1z" fill="#9fc9d3"/><circle id="Oval" cx="48" cy="10" fill="#ff5364" r="10"/><g fill="#f9eab0"><path id="Shape" d="m48 16c-.5522847 0-1-.4477153-1-1v-7.586l-.293.293c-.3923789.37897221-1.0160848.37355237-1.4018186-.01218142-.3857338-.3857338-.3911536-1.00943969-.0121814-1.40181858l2-2c.2859943-.28590792.7160366-.37142191 1.0896546-.21667798.3736179.15474393.6172591.51928208.6173454.92367798v10c0 .5522847-.4477153 1-1 1z"/><path id="Shape" d="m50 16h-4c-.5522847 0-1-.4477153-1-1s.4477153-1 1-1h4c.5522847 0 1 .4477153 1 1s-.4477153 1-1 1z"/></g></g></g></svg>