<svg height="512" viewBox="0 0 58 58" width="512" xmlns="http://www.w3.org/2000/svg"><g id="Page-1" fill="none" fill-rule="evenodd"><g id="022---Bot-Teaching" fill-rule="nonzero"><path id="Shape" d="m19 7h37c1.1032019.0032948 1.9967052.89679813 2 2v30c-.0032948 1.1032019-.8967981 1.9967052-2 2h-37z" fill="#bdc3c7"/><path id="Shape" d="m19 37h18.12 5.28 11.6v-26h-35z" fill="#fff"/><path id="Shape" d="m30.39 40.71c2.74-.63 6.75-2.48 9.9-7.74.3440406-.6594515 1.0256206-1.073506 1.7694204-1.074909.7437999-.001403 1.4269371.4100773 1.773463 1.0682262s.2991913 1.4542343-.1228834 2.0666828c-4.34 7.24-10.14 9.28-13.7 9.82z" fill="#285680"/><path id="Shape" d="m14 53h10v2c0 1.6568542-1.3431458 3-3 3h-4c-1.6568542 0-3-1.3431458-3-3z" fill="#285680"/><path id="Rectangle-path" d="m1 .62h2v13.38h-2z" fill="#a5a5a4"/><path id="Rectangle-path" d="m35 .62h2v13.38h-2z" fill="#a5a5a4"/><path id="Shape" d="m38 19.636c0 12.273-8.507 16.364-19 16.364s-19-4.091-19-16.364c0-11.454 8.507-19.636 19-19.636s19 8.182 19 19.636z" fill="#3b97d3"/><circle id="Oval" cx="2" cy="2" fill="#3b97d3" r="2"/><circle id="Oval" cx="36" cy="2" fill="#3b97d3" r="2"/><rect id="Rectangle-path" fill="#547580" height="18" rx="9" width="30" x="4" y="12"/><circle id="Oval" cx="11" cy="20" fill="#81ccb8" r="2"/><circle id="Oval" cx="27" cy="20" fill="#81ccb8" r="2"/><path id="Shape" d="m19 26c-1.35546.0583036-2.6818413-.4043376-3.707-1.293-.3573625-.3924894-.3458038-.9958028.02633-1.374316.3721338-.3785133.9751636-.4003241 1.37367-.049684.658334.5075391 1.4769529.7619604 2.307.717.8279181.0438735 1.6440783-.2109104 2.3-.718.3989756-.3752273 1.0248131-.3623371 1.408.029.3854708.3870661.3854708 1.0129339 0 1.4-1.0260166.8874608-2.3527373 1.3486644-3.708 1.289z" fill="#35495e"/><path id="Shape" d="m21 10h-4c-.5522847 0-1-.44771525-1-1s.4477153-1 1-1h4c.5522847 0 1 .44771525 1 1s-.4477153 1-1 1z" fill="#9fc9d3"/><path id="Shape" d="m20 7h-2c-.5522847 0-1-.44771525-1-1s.4477153-1 1-1h2c.5522847 0 1 .44771525 1 1s-.4477153 1-1 1z" fill="#9fc9d3"/><path id="Shape" d="m30.38 41.55-.72 6.46-.17 1.54c-.02.15-.04.3-.07.45-.4770287 2.3272666-2.5243476 3.9985473-4.9 4h-11.04c-2.3756524-.0014527-4.42297125-1.6727334-4.9-4-.03-.15-.05-.3-.07-.45l-.17-1.54-.72-6.46c-.15640871-1.4132687.29629586-2.8262862 1.24485592-3.8855434s2.30324678-1.6645539 3.72514408-1.6644566h12.82c1.4218973-.0000973 2.776584.6051994 3.7251441 1.6644566.94856 1.0592572 1.4012646 2.4722747 1.2448559 3.8855434z" fill="#4482c3"/><g fill="#285680"><path id="Shape" d="m16 36h6v3c0 1.6568542-1.3431458 3-3 3s-3-1.3431458-3-3z"/><path id="Shape" d="m17 49c0 .5522847-.4477153 1-1 1h-7.42c-.03-.15-.05-.3-.07-.45l-.17-1.54c.03597207-.0087446.07304074-.0121145.11-.01h7.55c.5522847 0 1 .4477153 1 1z"/><path id="Shape" d="m29.66 48.01-.17 1.54c-.02.15-.04.3-.07.45h-7.42c-.5522847 0-1-.4477153-1-1s.4477153-1 1-1h7.55c.0369593-.0021145.0740279.0012554.11.01z"/></g><path id="Shape" d="m42.55 33.081c-.3139395.0001745-.6097382-.1470902-.7988245-.3976983-.1890862-.2506081-.2495089-.5754664-.1631755-.8773017l1.451-5.08c.0871488-.3556831.3617449-.6352817.7157968-.7288372.354052-.0935554.7309235.0138981.982401.2801019.2514776.2662038.3373332.6485742.2238022.9967353l-1.45 5.08c-.1219674.4297972-.5142322.7265469-.961.727z" fill="#ff5364"/></g></g></svg>